# xmcd
# 
# Track frame offsets:
#     150
#     19899
#     38290
#     60276
#     75303
#     93445
#     104271
# 
# Disc length: 1705
# 
# Revision: 0
# Processed by: cddbd v1.5.2PL0 Copyright (c) Steve Scherf et al.
# Submitted via: BonkEnc v1.0
# 
DISCID=3e06a707
DTITLE=ＳＣＡＮＤＡＬ - Ｒ－ＧＩＲＬ’ｓ　ＲＯＣＫ！ 
DYEAR=0
DGENRE=
TTITLE0=六本木心中
TTITLE1=恋人がサンタクロース
TTITLE2=ＳＩＮＫＹ－ＹＯＲＫ
TTITLE3=ロックンロール・ウィドウ 
TTITLE4=ＤＡＹＤＲＥＡＭ 
TTITLE5=Ｓｕｎｎｙ　Ｄａｙ　Ｓｕｎｄａｙ
TTITLE6=ｓｅｃｒｅｔ　ｂａｓｅ～君がくれたもの～
EXTD=
EXTT0=
EXTT1=
EXTT2=
EXTT3=
EXTT4=
EXTT5=
EXTT6=
PLAYORDER=
